<?xml version="1.0" encoding="UTF-8"?>
<!DOCTYPE svg PUBLIC "-//W3C//DTD SVG 1.1//EN" "http://www.w3.org/Graphics/SVG/1.1/DTD/svg11.dtd">
<svg xmlns="http://www.w3.org/2000/svg" version="1.1" width="512px" height="512px" style="shape-rendering:geometricPrecision; text-rendering:geometricPrecision; image-rendering:optimizeQuality; fill-rule:evenodd; clip-rule:evenodd" xmlns:xlink="http://www.w3.org/1999/xlink">
<g><path style="opacity:0.999" fill="#4a895a" d="M 110.5,7.5 C 110.5,149.833 110.5,292.167 110.5,434.5C 93.5972,435.742 82.5972,444.408 77.5,460.5C 76.8333,449.167 76.1667,437.833 75.5,426.5C 75.3333,297.166 75.5,167.833 76,38.5C 79.4378,19.2302 90.9378,8.89687 110.5,7.5 Z"/></g>
<g><path style="opacity:1" fill="#5ec67c" d="M 110.5,7.5 C 214.167,7.33334 317.834,7.5 421.5,8C 429.114,9.9471 433.614,14.7804 435,22.5C 435.667,155.167 435.667,287.833 435,420.5C 433.16,429.506 427.66,434.506 418.5,435.5C 315.904,434.502 213.237,434.169 110.5,434.5C 110.5,292.167 110.5,149.833 110.5,7.5 Z"/></g>
<g><path style="opacity:1" fill="#4a895a" d="M 312.5,161.5 C 286.167,161.5 259.833,161.5 233.5,161.5C 223.161,161.666 212.828,161.5 202.5,161C 197.242,157.984 195.075,153.484 196,147.5C 219.094,118.983 242.428,90.6492 266,62.5C 270.954,58.3233 275.62,58.6567 280,63.5C 303.378,91.2091 326.378,119.209 349,147.5C 350.076,152.607 348.576,156.774 344.5,160C 333.912,161.429 323.245,161.929 312.5,161.5 Z"/></g>
<g><path style="opacity:1" fill="#53a064" d="M 233.5,161.5 C 259.833,161.5 286.167,161.5 312.5,161.5C 329.068,180.908 346.234,199.908 364,218.5C 368.617,227.763 366.117,234.263 356.5,238C 342.994,238.169 329.66,238.669 316.5,239.5C 287.574,238.509 258.574,238.175 229.5,238.5C 215.496,238.667 201.496,238.5 187.5,238C 178.934,233.635 176.767,227.135 181,218.5C 198.706,199.63 216.206,180.63 233.5,161.5 Z"/></g>
<g><path style="opacity:1" fill="#4a895a" d="M 229.5,238.5 C 258.574,238.175 287.574,238.509 316.5,239.5C 335.126,260.629 353.959,281.629 373,302.5C 376.796,311.727 374.296,318.56 365.5,323C 343.169,323.5 320.836,323.667 298.5,323.5C 281.167,323.5 263.833,323.5 246.5,323.5C 224.164,323.667 201.831,323.5 179.5,323C 170.238,318.078 168.071,310.911 173,301.5C 192.041,280.629 210.874,259.629 229.5,238.5 Z"/></g>
<g><path style="opacity:1" fill="#915c4c" d="M 297.5,368.5 C 296.656,375.852 292.656,380.685 285.5,383C 275.758,383.92 266.092,383.587 256.5,382C 250.894,379.229 247.894,374.729 247.5,368.5C 247.5,353.833 247.5,339.167 247.5,324.5C 264.167,324.5 280.833,324.5 297.5,324.5C 297.5,339.167 297.5,353.833 297.5,368.5 Z"/></g>
<g><path style="opacity:1" fill="#7e7c5b" d="M 246.5,323.5 C 263.833,323.5 281.167,323.5 298.5,323.5C 298.829,338.676 298.496,353.676 297.5,368.5C 297.5,353.833 297.5,339.167 297.5,324.5C 280.833,324.5 264.167,324.5 247.5,324.5C 247.5,339.167 247.5,353.833 247.5,368.5C 246.504,353.676 246.171,338.676 246.5,323.5 Z"/></g>
<g><path style="opacity:0.361" fill="#89a990" d="M 75.5,426.5 C 76.1667,437.833 76.8333,449.167 77.5,460.5C 77.0733,463.01 76.4067,465.343 75.5,467.5C 75.5,453.833 75.5,440.167 75.5,426.5 Z"/></g>
<g><path style="opacity:0.988" fill="#d7d7d7" d="M 110.5,434.5 C 213.237,434.169 315.904,434.502 418.5,435.5C 418.667,453.17 418.5,470.836 418,488.5C 416.614,496.22 412.114,501.053 404.5,503C 304.5,503.667 204.5,503.667 104.5,503C 85.8552,498.52 76.1885,486.687 75.5,467.5C 76.4067,465.343 77.0733,463.01 77.5,460.5C 82.5972,444.408 93.5972,435.742 110.5,434.5 Z"/></g>
<g><path style="opacity:1" fill="#b7b7b7" d="M 140.5,460.5 C 188.501,460.333 236.501,460.5 284.5,461C 289.535,464.013 290.702,468.18 288,473.5C 286.786,475.049 285.286,476.215 283.5,477C 236.5,477.667 189.5,477.667 142.5,477C 136.905,474.646 135.072,470.479 137,464.5C 138.376,463.295 139.542,461.962 140.5,460.5 Z"/></g>
<g><path style="opacity:1" fill="#b7b7b7" d="M 311.5,460.5 C 327.837,460.333 344.17,460.5 360.5,461C 365.418,462.911 367.251,466.411 366,471.5C 364.833,474 363,475.833 360.5,477C 344.5,477.667 328.5,477.667 312.5,477C 304.959,471.925 304.626,466.425 311.5,460.5 Z"/></g>
</svg>
